<svg version="1" xmlns="http://www.w3.org/2000/svg" width="441.333" height="441.333" viewBox="0 0 331.000000 331.000000"><path d="M264 5.2c-9.8 16-29.3 36.5-48.5 51.1-.5.4-3.8 2.8-7.1 5.5-3.4 2.6-7 5.3-8 6-1.1.7-6.3 4.4-11.7 8.2-5.3 3.9-9.9 7-10.2 7-.3 0-3.3 2-6.7 4.5-3.4 2.5-6.7 4.5-7.4 4.5-.7 0-1.4.4-1.6.9-.1.5-8.6 6.4-18.8 13.1-15.2 10.1-31.2 21.1-36.5 25.2-31.5 24.3-45.4 41.7-54 67.3-1.4 4.2-2.7 8.9-2.8 10.6-.1 1.6-.4 2.9-.7 2.9-.8 0-1 1.8-1.5 19.5-.5 18.6.7 28.3 6 50.5 2.2 8.8 11 34.3 13.9 39.7 5 9.8 19.3 12.7 23.1 4.8 1.9-4.2 1.6-6.3-3.5-19.7-4.1-11.1-10.4-31.8-11.3-37.5-.3-1.7-.7-3.5-1-4-.5-.7-1-4.3-2.3-15.3-.6-5.2-.6-24 0-27.5 2.2-12.7 2.1-12.1 5.1-21 6-18.2 18.1-34.6 38.7-52.7 8.3-7.4 8.2-7.3 24.5-19.9 4.5-3.5 9.2-7.2 10.5-8.1 4.6-3.4 13.3-9.8 15.3-11.3 1.1-.9 10.8-8.1 21.5-16.2 16.9-12.7 25-18.9 31-24 23.2-19.6 42.8-41.4 51.8-57.3 2.8-5.2 3-5.7 1.7-8.8-2.2-5.1-5.6-4.4-9.5 2z"/><path d="M263.5 52.6c-3.3 3.1-9 8.4-12.6 11.8-3.6 3.3-8.3 7.4-10.5 9.1-2.1 1.6-4.3 3.3-4.9 3.8-1.1.9-13.3 9.5-18 12.7-10.5 7.1-26.1 18.4-26.3 19.1-.2.5-.8.9-1.4.9-.6 0-2.5 1.2-4.2 2.7-1.8 1.6-4.9 4.1-6.9 5.6-11.8 9.2-25.2 22.7-33.2 33.5-3.6 4.8-6.9 9.2-7.4 9.7-5 6.5-14.1 28.6-13.6 33.1.4 4.2 4 6.6 9.3 6.2 5.1-.4 7.7-3 8.7-8.7 1.3-7.8 9.9-27.6 14.6-33.5 15.3-19.3 26-29.5 42.4-40.2 3.3-2.1 6.2-4.1 6.5-4.4.3-.3 3.7-2.8 7.5-5.5 6.4-4.4 18.3-13.5 21.1-16 .7-.5 2.9-2.4 5-4.2 2.2-1.7 5.3-4.4 7.1-6 1.7-1.5 5.3-4.7 8-6.9 8.3-7.1 20-18.8 21.2-21.1.9-1.8.8-2.8-.5-4.8-2.5-3.8-5.3-3-11.9 3.1zM262.9 90.4c-3.9 3.8-21.3 18.4-32.3 27.1-2.1 1.6-4.8 3.9-6.1 5-1.2 1.1-3.8 3.3-5.6 4.8-10.8 9.1-28.9 28.1-35.4 37.1-1.1 1.6-2.4 3.4-3 4-.5.6-1.5 2.1-2.1 3.1-.6 1.1-2.8 4.6-4.8 7.7-2 3.2-3.4 5.8-3 5.8.4 0 0 .8-.8 1.7-2.3 2.7-7.5 16.2-9.5 24.7-1.6 7.3-1.5 10.1.6 12.1 2.7 2.4 4.7 2.7 8.7 1.4 2.9-.9 5.7-4.9 5.9-8.4.4-4.7 7.7-27.1 9.4-28.5.3-.3 1.9-3 3.5-6 2.7-5.1 9.8-16 12.1-18.6.6-.7 3-3.6 5.5-6.5 7.4-8.7 26.5-27.1 34.8-33.4.7-.6 2.3-1.9 3.5-3 1.2-1.1 4.2-3.6 6.7-5.6 10.8-8.8 21.9-18.9 23.1-21 .5-1.1.5-2.9-.2-4.8-1.6-4.7-5.4-4.2-11 1.3zM244.4 144.8c-11.6 11.4-23.1 23.4-25.5 26.7-2.4 3.3-4.6 6.2-4.9 6.5-2.1 1.9-14.1 25-14.6 28 0 .3-.3 1.2-.6 2-3.6 9.6-5.8 17.7-7.2 26-.9 4.9 4.8 9.3 10.1 7.8 3.6-.9 4.9-2.8 5.8-7.9.3-1.9 1.5-7 2.7-11.4 1.1-4.4 2.1-8.5 2.3-9 .1-.6.7-2.3 1.3-3.8.7-1.6 1.2-3.4 1.2-4 0-2.4 8.7-20.4 12.9-26.7 2.4-3.6 11.5-13.7 20.2-22.5 24.4-24.7 23.4-23.4 22.9-28-.2-2.1-2.6-4.5-4.4-4.5-.6 0-10.6 9.3-22.2 20.8z"/></svg>