<?xml version="1.0" encoding="utf-8"?>
<svg version="1.0" xmlns="http://www.w3.org/2000/svg" width="234px" height="331px" viewBox="0 0 2340 3310" preserveAspectRatio="xMidYMid meet">
  <g id="layer101" fill="#3130bd" stroke="none">
    <path d="M295 3293 c-71 -37 -94 -74 -159 -261 -153 -440 -172 -814 -57 -1104 65 -165 182 -325 337 -464 138 -123 226 -187 633 -457 685 -455 921 -655 1096 -925 26 -40 53 -76 61 -79 18 -7 54 24 54 46 -1 24 -86 159 -158 250 -72 91 -205 228 -307 316 -156 135 -208 176 -730 566 -455 340 -609 494 -720 718 -137 275 -134 621 7 1045 22 67 51 147 64 178 34 81 32 123 -7 159 -35 33 -69 36 -114 12z"/>
    <path d="M1455 2390 c-24 -26 -16 -84 34 -237 93 -286 161 -386 463 -685 126 -126 233 -228 237 -228 20 0 43 40 37 65 -4 15 -81 100 -185 204 -98 98 -197 203 -220 235 -92 125 -167 305 -216 522 -13 58 -32 115 -41 125 -23 26 -85 25 -109 -1z"/>
    <path d="M1126 2228 c-9 -12 -16 -30 -16 -38 0 -43 58 -208 110 -315 111 -227 323 -467 630 -714 85 -69 201 -164 257 -213 56 -48 106 -88 111 -88 17 0 42 30 42 51 0 24 -55 79 -208 205 -64 54 -121 102 -127 108 -5 6 -50 46 -100 88 -293 248 -473 510 -542 791 -18 76 -31 108 -49 125 -34 30 -87 30 -108 0z"/>
    <path d="M803 1998 c-39 -19 -44 -57 -17 -134 49 -142 137 -288 257 -424 139 -159 287 -280 649 -534 134 -93 273 -200 339 -260 189 -172 197 -178 218 -171 25 8 35 38 21 64 -10 20 -128 136 -210 207 -25 21 -49 44 -55 50 -41 45 -361 292 -480 369 -83 54 -240 182 -301 247 -131 136 -231 305 -274 462 -27 96 -36 113 -74 126 -35 12 -44 12 -73 -2z"/>
  </g>
</svg>