<?xml version="1.0" encoding="utf-8"?>
<svg viewBox="33.53 158.5 47.717 54.02" xmlns="http://www.w3.org/2000/svg">
  <path d="M 39.504 212.52 L 68.1 212.2 C 72.171 212.207 75.437 209.125 75.7 205.7 C 77.261 194.709 80.05 173.454 81.1 165.3 C 81.744 160.473 80.298 158.87 76.1 158.5 L 46.433 158.52 C 42.704 158.52 39.249 161.573 38.768 165.312 L 33.586 205.729 C 33.105 209.458 35.765 212.52 39.504 212.52 Z" fill="#E52421"/>
  <path d="M 51.598 181.756 C 50.99 185.976 50.381 190.197 49.773 194.407 C 49.37 197.194 48.988 199.982 48.546 202.759 C 48.271 204.497 47.231 205.566 45.69 205.871 C 43.177 206.371 41.42 204.86 41.725 202.318 C 42.078 199.265 42.559 196.233 42.991 193.18 C 44.1 185.338 45.219 177.497 46.338 169.664 C 46.406 169.203 46.485 168.742 46.603 168.281 C 47.044 166.514 48.261 165.454 49.979 165.297 C 51.598 165.15 52.953 165.935 53.649 167.643 C 55.534 172.275 57.359 176.927 59.205 181.579 C 60.147 183.955 61.069 186.33 62.021 188.705 C 62.188 189.117 62.414 189.5 62.816 190.285 C 63.317 186.84 63.759 183.807 64.19 180.784 C 64.779 176.711 65.319 172.628 65.957 168.565 C 66.261 166.632 67.341 165.601 69.068 165.336 C 71.512 164.953 73.151 166.543 72.808 168.987 C 71.669 177.035 70.511 185.073 69.372 193.121 C 68.95 196.056 68.558 199 68.126 201.945 C 67.763 204.428 66.723 205.655 64.838 205.91 C 62.836 206.185 61.599 205.292 60.588 202.799 C 57.929 196.233 55.288 189.657 52.639 183.091 C 52.452 182.62 52.236 182.168 52.03 181.707 C 51.873 181.727 51.736 181.746 51.598 181.756 Z" fill="white"/>
</svg>