<?xml version="1.0" encoding="utf-8"?>
<svg viewBox="77.111 158.499 241.258 54" xmlns="http://www.w3.org/2000/svg">
  <path d="M5.9744 54H169.859C173.588 54 177.043 50.9477 177.524 47.2083L182.716 6.79171C183.197 3.06216 180.537 0 176.798 0H159.377H12.9035C9.17397 0 5.71922 3.05234 5.23831 6.79171L0.0561919 47.2083C-0.424724 50.9378 2.23504 54 5.9744 54Z" fill="#E52421" transform="matrix(1, 0, 0, 1, 77.111214, 158.499054)"/>
  <path d="M158.601 21.671C160.191 19.4823 161.624 17.5194 163.047 15.5467C164.51 13.5249 165.864 11.3951 167.474 9.49105C168.338 8.47033 169.535 7.48887 170.772 7.06684C173.402 6.17371 175.453 8.07774 175.07 10.8356C174.383 15.7331 173.657 20.6306 172.96 25.5281C172.106 31.5052 172.715 27.4223 171.851 33.3994C171.498 35.8237 170.546 37.0112 168.73 37.3645C166.07 37.8945 164.274 36.3144 164.628 33.635C165.383 27.9523 164.794 32.3591 165.589 26.6862C165.815 25.0668 166.031 23.4376 165.962 21.6906C165.05 22.9273 164.137 24.1737 163.224 25.4103C162.449 26.4605 161.723 27.5499 160.888 28.5412C158.68 31.1912 155.637 30.7397 154.214 27.5597C153.36 25.6557 152.546 23.7419 151.702 21.8378C151.663 21.7593 151.545 21.7102 151.25 21.4943C150.868 24.105 150.495 26.5979 150.151 29.0908C149.474 33.9392 148.826 38.7975 148.119 43.6361C147.747 46.1584 146.48 47.4147 144.38 47.5227C142.103 47.6404 140.592 46.0407 140.906 43.7833C141.799 37.3842 142.712 30.9949 143.624 24.6055C144.292 19.9142 144.949 15.2228 145.666 10.5314C146.009 8.29366 147.197 7.08647 149.101 6.86073C150.877 6.65462 152.271 7.54775 153.194 9.58919C154.715 12.9654 156.197 16.3515 157.699 19.7277C157.934 20.3166 158.209 20.8564 158.601 21.671Z" fill="white" transform="matrix(1, 0, 0, 1, 77.111214, 158.499054)"/>
  <path d="M82.4893 40.7799C84.2756 40.7799 85.8263 40.7897 87.377 40.7799C91.0182 40.7407 93.7761 38.4833 94.3454 34.8617C95.16 29.7189 95.8764 24.5564 96.5242 19.3841C96.9364 16.106 94.787 13.7309 91.4599 13.6229C90.2625 13.5836 89.0553 13.7014 87.8677 13.5935C86.5722 13.4659 86.1796 14.0351 86.0128 15.2325C85.1393 21.7396 84.1872 28.2369 83.2745 34.7341C83.0095 36.6774 82.7739 38.6207 82.4893 40.7799ZM83.1567 47.4244C81.4392 47.4244 79.7118 47.444 77.9942 47.4146C75.7074 47.3753 74.5198 46.0209 74.8339 43.793C76.3159 33.2717 77.8176 22.7407 79.3094 12.2194C79.3683 11.8072 79.4075 11.395 79.4664 10.9828C79.8197 8.22486 81.1545 7.01766 83.9124 6.99804C86.7292 6.97841 89.546 6.95878 92.353 7.00785C100.107 7.13544 104.837 12.8672 103.63 20.5128C102.845 25.4986 102.256 30.5237 101.422 35.5095C100.264 42.3797 94.3061 47.3655 87.377 47.4244C85.9735 47.4342 84.57 47.4244 83.1567 47.4244Z" fill="white" transform="matrix(1, 0, 0, 1, 77.111214, 158.499054)"/>
  <path d="M115.741 34.5276C115.554 37.5995 116.202 39.3563 118.047 40.4458C119.991 41.5941 121.953 41.3389 123.808 40.171C125.516 39.1012 126.664 37.5897 127.067 35.5974C127.371 34.0663 127.558 32.5156 127.783 30.9747C128.333 27.2157 128.892 23.4567 129.413 19.6977C129.786 16.9888 128.824 14.8689 126.812 13.8482C124.829 12.8275 122.081 13.1906 120.344 15.0357C119.353 16.0957 118.352 17.4796 118.106 18.8438C117.115 24.3694 116.408 29.954 115.741 34.5276ZM136.695 18.9125C135.939 24.0357 135.144 30.2778 134.045 36.4709C133.358 40.328 131.052 43.3313 127.793 45.4807C123.7 48.1797 119.313 48.8373 114.73 46.7664C110.51 44.8623 107.919 40.6028 108.449 36.0292C109.116 30.1895 109.862 24.34 110.912 18.5592C112.453 10.1088 121.1 4.65188 128.775 7.02702C133.711 8.56791 136.695 12.6213 136.695 18.9125Z" fill="white" transform="matrix(1, 0, 0, 1, 77.111214, 158.499054)"/>
  <path d="M194.435 24.0063C194.788 23.4371 195.092 22.8286 195.514 22.3084C199.126 17.9311 202.757 13.5538 206.408 9.20589C206.938 8.56794 207.527 7.94962 208.204 7.47851C209.52 6.55594 211.316 6.71297 212.405 7.72388C213.504 8.73478 213.809 10.4818 213.043 11.8755C212.7 12.5036 212.209 13.0728 211.738 13.6225C208.067 17.8918 204.406 22.171 200.667 26.3716C199.803 27.3433 199.813 28.0107 200.5 29.0608C203.052 32.9965 205.554 36.9616 207.969 40.9758C208.528 41.9082 208.96 43.0859 208.98 44.1557C209.009 45.8144 207.724 47.0609 206.124 47.4142C204.377 47.8068 203.091 47.2964 202.139 45.7162C199.568 41.4273 197.035 37.1088 194.484 32.81C194.297 32.496 194.15 32.1426 193.914 31.8776C193.649 31.593 193.306 31.3869 192.992 31.1415C192.786 31.5145 192.442 31.8678 192.373 32.2604C191.785 36.1274 191.274 39.9943 190.685 43.8613C190.332 46.1873 189.105 47.3749 187.093 47.5221C184.777 47.689 183.295 46.2659 183.58 43.8907C184.06 39.749 184.698 35.6366 185.277 31.5047C186.19 25.0074 187.093 18.5101 188.026 12.0129C188.163 11.0412 188.3 10.0303 188.664 9.12737C189.4 7.30185 191.421 6.44798 193.335 7.02704C195.043 7.54722 195.701 8.84274 195.367 11.0314C194.807 14.7413 194.258 18.4513 193.718 22.1612C193.659 22.593 193.708 23.0445 193.708 23.496C193.954 23.6726 194.199 23.8395 194.435 24.0063Z" fill="#E52421" transform="matrix(1, 0, 0, 1, 77.111214, 158.499054)"/>
  <path d="M58.6005 16.5179C56.6082 21.6116 54.7728 26.3128 52.8884 31.1416H60.3966C59.8077 26.3128 59.2287 21.6411 58.6005 16.5179ZM69.3377 44.146C69.3672 46.0206 68.0618 47.4241 66.148 47.6694C64.2537 47.905 62.7521 46.8646 62.4282 44.9606C62.0847 42.9584 61.8197 40.9464 61.5744 38.9246C61.4566 37.9726 61.064 37.6193 60.0727 37.6389C57.2069 37.7076 54.341 37.6978 51.4751 37.6487C50.5624 37.6291 50.0618 37.9137 49.7477 38.797C48.992 40.8483 48.148 42.8701 47.3235 44.8919C46.7445 46.3248 45.8317 47.6204 44.2123 47.5811C43.0836 47.5517 41.7979 47.0217 40.9146 46.3052C39.7565 45.363 40.1196 43.9497 40.679 42.6934C44.124 34.8221 47.5689 26.9508 51.0138 19.0795C52.2897 16.1645 53.5264 13.2398 54.8513 10.3543C55.9702 7.92026 58.0804 6.62473 60.2592 6.88973C62.4282 7.14491 63.8121 8.45025 64.2047 10.8843C65.0782 16.2234 65.8732 21.5822 66.6976 26.9312C67.5515 32.4862 68.4151 38.0413 69.269 43.6062C69.3083 43.8123 69.3279 44.0282 69.3377 44.146Z" fill="white" transform="matrix(1, 0, 0, 1, 77.111214, 158.499054)"/>
  <path d="M221.611 40.8975C225.704 40.8975 229.385 40.8779 233.075 40.9073C235.852 40.927 237.148 42.9095 236.049 45.4417C235.509 46.6881 234.557 47.4242 233.134 47.4242C227.088 47.4242 221.042 47.4439 214.996 47.4046C212.984 47.3948 211.787 45.9226 212.258 43.9597C212.533 42.831 213.082 41.7121 213.73 40.7307C219.374 32.2214 225.066 23.7416 230.739 15.2519C231.053 14.7808 231.347 14.2999 231.799 13.5933C231.171 13.5344 230.739 13.4559 230.317 13.4559C226.931 13.4461 223.545 13.4559 220.159 13.4461C218.039 13.4362 216.999 12.5235 216.949 10.6783C216.891 8.65652 218.088 7.06655 220.012 7.04692C226.214 6.96841 232.407 6.96841 238.61 7.04692C240.377 7.06655 241.555 8.49949 241.192 10.2367C240.907 11.5715 240.289 12.9062 239.533 14.0447C233.978 22.4264 228.354 30.759 222.76 39.1113C222.455 39.5824 222.161 40.0535 221.611 40.8975Z" fill="#E52421" transform="matrix(1, 0, 0, 1, 77.111214, 158.499054)"/>
  <path d="M170.85 43.4098C170.762 45.942 168.73 47.9245 166.345 47.8068C164.274 47.7086 162.743 46.1579 162.802 44.2244C162.88 41.6726 164.951 39.7097 167.464 39.798C169.594 39.8667 170.919 41.28 170.85 43.4098Z" fill="white" transform="matrix(1, 0, 0, 1, 77.111214, 158.499054)"/>
</svg>