<?xml version="1.0" encoding="utf-8"?>
<svg viewBox="55.125 91.469 301.688 139.875" xmlns="http://www.w3.org/2000/svg">
  <path d="M 83.185 149.67 L 64.635 149.67 C 63.802 149.67 63.112 149.44 62.565 148.98 C 62.012 148.513 61.735 147.887 61.735 147.1 L 61.735 100.7 C 61.735 99.953 61.978 99.337 62.465 98.85 C 62.945 98.363 63.558 98.12 64.305 98.12 L 92.425 98.12 C 93.085 98.12 93.645 98.353 94.105 98.82 C 94.572 99.28 94.805 99.883 94.805 100.63 C 94.805 101.377 94.572 101.97 94.105 102.41 C 93.645 102.85 93.085 103.07 92.425 103.07 L 66.885 103.07 L 66.885 119.24 L 83.185 119.24 C 86.265 119.24 89.005 119.89 91.405 121.19 C 93.798 122.49 95.678 124.273 97.045 126.54 C 98.412 128.807 99.095 131.413 99.095 134.36 C 99.095 137.353 98.412 140.003 97.045 142.31 C 95.678 144.623 93.798 146.427 91.405 147.72 C 89.005 149.02 86.265 149.67 83.185 149.67 Z M 66.885 123.8 L 66.885 144.72 L 83.185 144.72 C 85.298 144.72 87.168 144.28 88.795 143.4 C 90.422 142.52 91.698 141.287 92.625 139.7 C 93.545 138.12 94.005 136.273 94.005 134.16 C 94.005 132.047 93.545 130.21 92.625 128.65 C 91.698 127.09 90.422 125.89 88.795 125.05 C 87.168 124.217 85.298 123.8 83.185 123.8 L 66.885 123.8 ZM 130.764 149.67 L 112.214 149.67 C 111.381 149.67 110.691 149.44 110.144 148.98 C 109.591 148.513 109.314 147.887 109.314 147.1 L 109.314 100.7 C 109.314 99.953 109.557 99.337 110.044 98.85 C 110.524 98.363 111.137 98.12 111.884 98.12 L 140.004 98.12 C 140.664 98.12 141.224 98.353 141.684 98.82 C 142.151 99.28 142.384 99.883 142.384 100.63 C 142.384 101.377 142.151 101.97 141.684 102.41 C 141.224 102.85 140.664 103.07 140.004 103.07 L 114.464 103.07 L 114.464 119.24 L 130.764 119.24 C 133.844 119.24 136.584 119.89 138.984 121.19 C 141.377 122.49 143.257 124.273 144.624 126.54 C 145.991 128.807 146.674 131.413 146.674 134.36 C 146.674 137.353 145.991 140.003 144.624 142.31 C 143.257 144.623 141.377 146.427 138.984 147.72 C 136.584 149.02 133.844 149.67 130.764 149.67 Z M 114.464 123.8 L 114.464 144.72 L 130.764 144.72 C 132.877 144.72 134.747 144.28 136.374 143.4 C 138.001 142.52 139.277 141.287 140.204 139.7 C 141.124 138.12 141.584 136.273 141.584 134.16 C 141.584 132.047 141.124 130.21 140.204 128.65 C 139.277 127.09 138.001 125.89 136.374 125.05 C 134.747 124.217 132.877 123.8 130.764 123.8 L 114.464 123.8 ZM 180.723 150.33 C 176.889 150.33 173.369 149.67 170.163 148.35 C 166.949 147.03 164.166 145.183 161.813 142.81 C 159.459 140.43 157.633 137.633 156.333 134.42 C 155.033 131.213 154.383 127.693 154.383 123.86 C 154.383 120.08 155.033 116.583 156.333 113.37 C 157.633 110.157 159.459 107.363 161.813 104.99 C 164.166 102.61 166.949 100.76 170.163 99.44 C 173.369 98.12 176.889 97.46 180.723 97.46 C 184.503 97.46 187.999 98.12 191.213 99.44 C 194.426 100.76 197.219 102.61 199.593 104.99 C 201.973 107.363 203.809 110.157 205.103 113.37 C 206.403 116.583 207.053 120.08 207.053 123.86 C 207.053 127.693 206.403 131.213 205.103 134.42 C 203.809 137.633 201.973 140.43 199.593 142.81 C 197.219 145.183 194.426 147.03 191.213 148.35 C 187.999 149.67 184.503 150.33 180.723 150.33 Z M 180.723 145.45 C 183.756 145.45 186.569 144.91 189.163 143.83 C 191.763 142.75 194.019 141.23 195.933 139.27 C 197.846 137.317 199.329 135.03 200.383 132.41 C 201.443 129.79 201.973 126.94 201.973 123.86 C 201.973 120.827 201.443 118 200.383 115.38 C 199.329 112.767 197.846 110.48 195.933 108.52 C 194.019 106.56 191.763 105.04 189.163 103.96 C 186.569 102.887 183.756 102.35 180.723 102.35 C 177.643 102.35 174.803 102.887 172.203 103.96 C 169.609 105.04 167.356 106.56 165.443 108.52 C 163.529 110.48 162.043 112.767 160.983 115.38 C 159.929 118 159.403 120.827 159.403 123.86 C 159.403 126.94 159.929 129.79 160.983 132.41 C 162.043 135.03 163.529 137.317 165.443 139.27 C 167.356 141.23 169.609 142.75 172.203 143.83 C 174.803 144.91 177.643 145.45 180.723 145.45 ZM 223.68 150.2 C 221.653 150.2 219.693 149.54 217.8 148.22 C 217.14 147.78 216.766 147.24 216.68 146.6 C 216.593 145.96 216.79 145.357 217.27 144.79 C 217.71 144.17 218.25 143.827 218.89 143.76 C 219.53 143.693 220.18 143.88 220.84 144.32 C 221.32 144.633 221.793 144.867 222.26 145.02 C 222.72 145.173 223.236 145.25 223.81 145.25 C 225.13 145.25 226.47 144.657 227.83 143.47 C 229.196 142.277 230.386 140.58 231.4 138.38 L 249.61 99.71 C 250.316 98.21 251.416 97.79 252.91 98.45 C 254.363 99.11 254.74 100.19 254.04 101.69 L 235.82 140.43 C 234.366 143.557 232.583 145.967 230.47 147.66 C 228.363 149.353 226.1 150.2 223.68 150.2 Z M 236.94 136.67 L 233.44 139.24 L 211.4 101.95 C 210.566 100.497 210.896 99.377 212.39 98.59 C 213.796 97.75 214.92 98.057 215.76 99.51 L 236.94 136.67 ZM 285.445 149.67 L 266.895 149.67 C 266.061 149.67 265.371 149.44 264.825 148.98 C 264.271 148.513 263.995 147.887 263.995 147.1 L 263.995 100.7 C 263.995 99.953 264.238 99.337 264.725 98.85 C 265.205 98.363 265.818 98.12 266.565 98.12 L 294.685 98.12 C 295.345 98.12 295.905 98.353 296.365 98.82 C 296.831 99.28 297.065 99.883 297.065 100.63 C 297.065 101.377 296.831 101.97 296.365 102.41 C 295.905 102.85 295.345 103.07 294.685 103.07 L 269.145 103.07 L 269.145 119.24 L 285.445 119.24 C 288.525 119.24 291.265 119.89 293.665 121.19 C 296.058 122.49 297.938 124.273 299.305 126.54 C 300.671 128.807 301.355 131.413 301.355 134.36 C 301.355 137.353 300.671 140.003 299.305 142.31 C 297.938 144.623 296.058 146.427 293.665 147.72 C 291.265 149.02 288.525 149.67 285.445 149.67 Z M 269.145 123.8 L 269.145 144.72 L 285.445 144.72 C 287.558 144.72 289.428 144.28 291.055 143.4 C 292.681 142.52 293.958 141.287 294.885 139.7 C 295.805 138.12 296.265 136.273 296.265 134.16 C 296.265 132.047 295.805 130.21 294.885 128.65 C 293.958 127.09 292.681 125.89 291.055 125.05 C 289.428 124.217 287.558 123.8 285.445 123.8 L 269.145 123.8 Z" transform="matrix(1, 0, 0, 1, 0, 0)" style="fill: rgb(49, 48, 189); white-space: pre;"/>
  <path d="M 106.155 226.96 C 105.362 226.96 104.735 226.727 104.275 226.26 C 103.808 225.8 103.575 225.173 103.575 224.38 L 103.575 215.67 L 64.305 215.67 C 63.558 215.67 62.945 215.427 62.465 214.94 C 61.978 214.46 61.735 213.847 61.735 213.1 L 61.735 166.7 C 61.735 165.953 61.978 165.337 62.465 164.85 C 62.945 164.363 63.558 164.12 64.305 164.12 C 65.058 164.12 65.675 164.363 66.155 164.85 C 66.642 165.337 66.885 165.953 66.885 166.7 L 66.885 210.85 L 96.845 210.85 L 96.845 166.7 C 96.845 165.953 97.088 165.337 97.575 164.85 C 98.055 164.363 98.672 164.12 99.425 164.12 C 100.172 164.12 100.785 164.363 101.265 164.85 C 101.752 165.337 101.995 165.953 101.995 166.7 L 101.995 210.85 L 106.155 210.85 C 106.948 210.85 107.575 211.08 108.035 211.54 C 108.495 212.007 108.725 212.637 108.725 213.43 L 108.725 224.38 C 108.725 225.173 108.495 225.8 108.035 226.26 C 107.575 226.727 106.948 226.96 106.155 226.96 ZM 141.459 216.33 C 137.625 216.33 134.105 215.67 130.899 214.35 C 127.685 213.03 124.902 211.183 122.549 208.81 C 120.195 206.43 118.369 203.633 117.069 200.42 C 115.769 197.213 115.119 193.693 115.119 189.86 C 115.119 186.08 115.769 182.583 117.069 179.37 C 118.369 176.157 120.195 173.363 122.549 170.99 C 124.902 168.61 127.685 166.76 130.899 165.44 C 134.105 164.12 137.625 163.46 141.459 163.46 C 145.239 163.46 148.735 164.12 151.949 165.44 C 155.162 166.76 157.955 168.61 160.329 170.99 C 162.709 173.363 164.545 176.157 165.839 179.37 C 167.139 182.583 167.789 186.08 167.789 189.86 C 167.789 193.693 167.139 197.213 165.839 200.42 C 164.545 203.633 162.709 206.43 160.329 208.81 C 157.955 211.183 155.162 213.03 151.949 214.35 C 148.735 215.67 145.239 216.33 141.459 216.33 Z M 141.459 211.45 C 144.492 211.45 147.305 210.91 149.899 209.83 C 152.499 208.75 154.755 207.23 156.669 205.27 C 158.582 203.317 160.065 201.03 161.119 198.41 C 162.179 195.79 162.709 192.94 162.709 189.86 C 162.709 186.827 162.179 184 161.119 181.38 C 160.065 178.767 158.582 176.48 156.669 174.52 C 154.755 172.56 152.499 171.04 149.899 169.96 C 147.305 168.887 144.492 168.35 141.459 168.35 C 138.379 168.35 135.539 168.887 132.939 169.96 C 130.345 171.04 128.092 172.56 126.179 174.52 C 124.265 176.48 122.779 178.767 121.719 181.38 C 120.665 184 120.139 186.827 120.139 189.86 C 120.139 192.94 120.665 195.79 121.719 198.41 C 122.779 201.03 124.265 203.317 126.179 205.27 C 128.092 207.23 130.345 208.75 132.939 209.83 C 135.539 210.91 138.379 211.45 141.459 211.45 ZM 200.916 216.33 C 197.082 216.33 193.562 215.67 190.356 214.35 C 187.142 213.03 184.359 211.183 182.006 208.81 C 179.652 206.43 177.826 203.633 176.526 200.42 C 175.226 197.213 174.576 193.693 174.576 189.86 C 174.576 186.08 175.226 182.583 176.526 179.37 C 177.826 176.157 179.652 173.363 182.006 170.99 C 184.359 168.61 187.142 166.76 190.356 165.44 C 193.562 164.12 197.082 163.46 200.916 163.46 C 204.696 163.46 208.192 164.12 211.406 165.44 C 214.619 166.76 217.412 168.61 219.786 170.99 C 222.166 173.363 224.002 176.157 225.296 179.37 C 226.596 182.583 227.246 186.08 227.246 189.86 C 227.246 193.693 226.596 197.213 225.296 200.42 C 224.002 203.633 222.166 206.43 219.786 208.81 C 217.412 211.183 214.619 213.03 211.406 214.35 C 208.192 215.67 204.696 216.33 200.916 216.33 Z M 200.916 211.45 C 203.949 211.45 206.762 210.91 209.356 209.83 C 211.956 208.75 214.212 207.23 216.126 205.27 C 218.039 203.317 219.522 201.03 220.576 198.41 C 221.636 195.79 222.166 192.94 222.166 189.86 C 222.166 186.827 221.636 184 220.576 181.38 C 219.522 178.767 218.039 176.48 216.126 174.52 C 214.212 172.56 211.956 171.04 209.356 169.96 C 206.762 168.887 203.949 168.35 200.916 168.35 C 197.836 168.35 194.996 168.887 192.396 169.96 C 189.802 171.04 187.549 172.56 185.636 174.52 C 183.722 176.48 182.236 178.767 181.176 181.38 C 180.122 184 179.596 186.827 179.596 189.86 C 179.596 192.94 180.122 195.79 181.176 198.41 C 182.236 201.03 183.722 203.317 185.636 205.27 C 187.549 207.23 189.802 208.75 192.396 209.83 C 194.996 210.91 197.836 211.45 200.916 211.45 ZM 240.433 215.67 C 239.733 215.67 239.129 215.417 238.623 214.91 C 238.116 214.403 237.863 213.8 237.863 213.1 L 237.863 166.7 C 237.863 165.953 238.116 165.337 238.623 164.85 C 239.129 164.363 239.733 164.12 240.433 164.12 C 241.493 164.12 242.263 164.56 242.743 165.44 L 264.993 209.66 L 262.743 209.66 L 284.593 165.44 C 285.119 164.56 285.889 164.12 286.903 164.12 C 287.603 164.12 288.196 164.363 288.683 164.85 C 289.169 165.337 289.413 165.953 289.413 166.7 L 289.413 213.1 C 289.413 213.8 289.169 214.403 288.683 214.91 C 288.196 215.417 287.603 215.67 286.903 215.67 C 286.156 215.67 285.529 215.417 285.023 214.91 C 284.516 214.403 284.263 213.8 284.263 213.1 L 284.263 173.36 L 285.383 173.43 L 265.913 213.23 C 265.426 214.063 264.679 214.48 263.673 214.48 C 262.573 214.48 261.779 213.953 261.293 212.9 L 241.693 173.69 L 243.013 173.36 L 243.013 213.1 C 243.013 213.8 242.759 214.403 242.253 214.91 C 241.746 215.417 241.139 215.67 240.433 215.67 ZM 326.429 216.33 C 322.596 216.33 319.076 215.67 315.869 214.35 C 312.656 213.03 309.872 211.183 307.519 208.81 C 305.166 206.43 303.339 203.633 302.039 200.42 C 300.739 197.213 300.089 193.693 300.089 189.86 C 300.089 186.08 300.739 182.583 302.039 179.37 C 303.339 176.157 305.166 173.363 307.519 170.99 C 309.872 168.61 312.656 166.76 315.869 165.44 C 319.076 164.12 322.596 163.46 326.429 163.46 C 330.209 163.46 333.706 164.12 336.919 165.44 C 340.132 166.76 342.926 168.61 345.299 170.99 C 347.679 173.363 349.516 176.157 350.809 179.37 C 352.109 182.583 352.759 186.08 352.759 189.86 C 352.759 193.693 352.109 197.213 350.809 200.42 C 349.516 203.633 347.679 206.43 345.299 208.81 C 342.926 211.183 340.132 213.03 336.919 214.35 C 333.706 215.67 330.209 216.33 326.429 216.33 Z M 326.429 211.45 C 329.462 211.45 332.276 210.91 334.869 209.83 C 337.469 208.75 339.726 207.23 341.639 205.27 C 343.552 203.317 345.036 201.03 346.089 198.41 C 347.149 195.79 347.679 192.94 347.679 189.86 C 347.679 186.827 347.149 184 346.089 181.38 C 345.036 178.767 343.552 176.48 341.639 174.52 C 339.726 172.56 337.469 171.04 334.869 169.96 C 332.276 168.887 329.462 168.35 326.429 168.35 C 323.349 168.35 320.509 168.887 317.909 169.96 C 315.316 171.04 313.062 172.56 311.149 174.52 C 309.236 176.48 307.749 178.767 306.689 181.38 C 305.636 184 305.109 186.827 305.109 189.86 C 305.109 192.94 305.636 195.79 306.689 198.41 C 307.749 201.03 309.236 203.317 311.149 205.27 C 313.062 207.23 315.316 208.75 317.909 209.83 C 320.509 210.91 323.349 211.45 326.429 211.45 Z" transform="matrix(1, 0, 0, 1, 0, 0)" style="fill: rgb(49, 48, 189); white-space: pre;"/>
</svg>